<?xml version="1.0" encoding="UTF-8" standalone="no"?>
<svg
   xmlns:dc="http://purl.org/dc/elements/1.1/"
   xmlns:cc="http://creativecommons.org/ns#"
   xmlns:rdf="http://www.w3.org/1999/02/22-rdf-syntax-ns#"
   xmlns:svg="http://www.w3.org/2000/svg"
   xmlns="http://www.w3.org/2000/svg"
   xmlns:sodipodi="http://sodipodi.sourceforge.net/DTD/sodipodi-0.dtd"
   xmlns:inkscape="http://www.inkscape.org/namespaces/inkscape"
   version="1.1"
   viewBox="0 0 630 630"
   id="svg6"
   sodipodi:docname="speech.svg"
   inkscape:version="0.92.4 (5da689c313, 2019-01-14)">
  <metadata
     id="metadata12">
    <rdf:RDF>
      <cc:Work
         rdf:about="">
        <dc:format>image/svg+xml</dc:format>
        <dc:type
           rdf:resource="http://purl.org/dc/dcmitype/StillImage" />
        <dc:title></dc:title>
      </cc:Work>
    </rdf:RDF>
  </metadata>
  <defs
     id="defs10" />
  <sodipodi:namedview
     pagecolor="#ffffff"
     bordercolor="#666666"
     borderopacity="1"
     objecttolerance="10"
     gridtolerance="10"
     guidetolerance="10"
     inkscape:pageopacity="0"
     inkscape:pageshadow="2"
     inkscape:window-width="1276"
     inkscape:window-height="835"
     id="namedview8"
     showgrid="false"
     inkscape:zoom="0.64603175"
     inkscape:cx="495.27306"
     inkscape:cy="178.68701"
     inkscape:current-layer="svg6"
     inkscape:window-x="0"
     inkscape:window-y="0"
     inkscape:window-maximized="0" />
  <!--
The MIT License (MIT)

Copyright (c) 2011 Christopher Williams <chris@iterativedesigns.com>,
                     Manuel Strehl <boldewyn@gmail.com>

Permission is hereby granted, free of charge, to any person obtaining a copy
of this software and associated documentation files (the "Software"), to deal
in the Software without restriction, including without limitation the rights
to use, copy, modify, merge, publish, distribute, sublicense, and/or sell
copies of the Software, and to permit persons to whom the Software is
furnished to do so, subject to the following conditions:

The above copyright notice and this permission notice shall be included in
all copies or substantial portions of the Software.

THE SOFTWARE IS PROVIDED "AS IS", WITHOUT WARRANTY OF ANY KIND, EXPRESS OR
IMPLIED, INCLUDING BUT NOT LIMITED TO THE WARRANTIES OF MERCHANTABILITY,
FITNESS FOR A PARTICULAR PURPOSE AND NONINFRINGEMENT. IN NO EVENT SHALL THE
AUTHORS OR COPYRIGHT HOLDERS BE LIABLE FOR ANY CLAIM, DAMAGES OR OTHER
LIABILITY, WHETHER IN AN ACTION OF CONTRACT, TORT OR OTHERWISE, ARISING FROM,
OUT OF OR IN CONNECTION WITH THE SOFTWARE OR THE USE OR OTHER DEALINGS IN
THE SOFTWARE.
-->
  <rect
     style="fill:#f0db4f;fill-opacity:1;stroke-width:1"
     height="458.18182"
     width="458.18182"
     y="146.6683"
     x="47.272724"
     id="background" />
  <path
     inkscape:connector-curvature="0"
     d="m 167.74546,529.5583 35.06363,-21.22 c 6.76455,11.99364 12.91819,22.14091 27.67819,22.14091 14.14818,0 23.06818,-5.53436 23.06818,-27.06182 v -146.4 h 43.05727 v 147.00909 c 0,44.59637 -26.14091,64.89546 -64.28,64.89546 -34.44454,0 -54.43818,-17.83909 -64.58727,-39.36727"
     id="j"
     style="fill:#323330;fill-opacity:1;stroke-width:1" />
  <path
     inkscape:connector-curvature="0"
     d="m 320,524.94467 35.05909,-20.2991 c 9.2291,15.07182 21.22364,26.14364 42.44455,26.14364 17.84091,0 29.21727,-8.91982 29.21727,-21.22273 0,-14.76272 -11.68636,-19.99182 -31.37091,-28.60091 l -10.76181,-4.61636 c -31.06546,-13.22273 -51.67273,-29.83091 -51.67273,-64.89273 0,-32.29363 24.60454,-56.9 63.05091,-56.9 27.37273,0 47.05636,9.53546 61.20273,34.44818 l -33.52455,21.52819 c -7.38182,-13.22364 -15.37636,-18.45182 -27.67818,-18.45182 -12.61,0 -20.60728,7.99636 -20.60728,18.45182 0,12.91818 7.99728,18.14727 26.4491,26.14454 l 10.76363,4.61273 c 36.6,15.68636 57.20728,31.67818 57.20728,67.66091 0,38.75454 -30.44819,59.97454 -71.35273,59.97454 -39.98273,0 -65.81818,-19.06727 -78.42637,-43.9809"
     id="s"
     style="fill:#323330;fill-opacity:1;stroke-width:1" />
  <g
     id="g4588"
     transform="matrix(3.4745649,0,0,3.4745649,813.08622,391.23492)"
     style="stroke-width:1.08776999">
    <path
       id="rect4578"
       transform="scale(0.26458333)"
       d="m -527.14258,-377.48047 v 204.28516 h 97.14258 v 24.66601 h 56.52148 v -24.66601 h 123.47852 v -204.28516 z"
       style="fill:#ffffff;fill-opacity:1;fill-rule:evenodd;stroke-width:1.08776999"
       inkscape:connector-curvature="0" />
    <path
       id="path4540"
       d="m -73.482051,-106.41695 h -57.483049 c -7.92174,0 -14.40317,6.481425 -14.40317,14.403168 v 37.766909 c 0,7.921743 6.48143,14.403169 14.40317,14.403169 h 13.31753 v 19.386665 l 24.004683,-19.386665 h 20.159035 c 7.921743,0 14.403169,-6.481426 14.403169,-14.403169 v -37.766909 c 0.0018,-7.921743 -6.479626,-14.403168 -14.401368,-14.403168 z m 5.401188,52.170077 c 0,2.927444 -2.473744,5.401188 -5.401188,5.401188 h -20.159036 -3.1813 l -2.475544,1.99844 -9.345859,7.549061 v -0.54552 -9.001981 h -9.00198 -13.31753 c -2.92744,0 -5.40119,-2.473744 -5.40119,-5.401188 v -37.766909 c 0,-2.927444 2.47375,-5.401188 5.40119,-5.401188 h 57.483049 c 2.927444,0 5.401188,2.473744 5.401188,5.401188 v 37.766909 z"
       inkscape:connector-curvature="0"
       style="fill:#000000;fill-opacity:1;stroke-width:0.2878058" />
    <circle
       id="circle4542"
       r="5.244554"
       cy="-73.127625"
       cx="-120.69024"
       style="fill:#000000;fill-opacity:1;stroke-width:0.2878058" />
    <circle
       id="circle4544"
       r="5.244554"
       cy="-73.127625"
       cx="-102.22357"
       style="fill:#000000;fill-opacity:1;stroke-width:0.2878058" />
    <circle
       id="circle4546"
       r="5.244554"
       cy="-73.127625"
       cx="-83.758713"
       style="fill:#000000;fill-opacity:1;stroke-width:0.2878058" />
  </g>
</svg>
